<svg width="250" height="32" viewBox="0 0 250 32" fill="none" xmlns="http://www.w3.org/2000/svg">
<path d="M11.9801 25.2547C4.74411 25.2547 0.42411 20.3587 0.42411 12.8347C0.42411 5.31074 4.74411 0.414745 11.9801 0.414745C19.1081 0.414745 22.9601 4.15874 22.9601 10.1347V10.4587H17.2001V10.2787C17.2001 6.82274 15.7601 5.63474 11.9441 5.63474C7.87611 5.63474 6.18411 7.11074 6.18411 12.8347C6.18411 18.5587 7.87611 20.0347 11.9441 20.0347C15.7601 20.0347 17.2001 18.8467 17.2001 15.3907V15.2107H22.9601V15.5347C22.9601 21.5107 19.1081 25.2547 11.9801 25.2547ZM32.5876 24.8947H27.2236V6.78674H32.2276V9.70274H32.4436C33.3436 7.86674 34.9636 6.42674 37.5196 6.42674C41.2996 6.42674 42.7036 9.23474 42.7036 12.8707V14.5267H37.3396V13.5547C37.3396 11.6107 36.7276 10.9987 35.0356 10.9987C33.3796 10.9987 32.5876 11.5747 32.5876 13.5547V24.8947ZM49.7756 31.0147C48.5516 31.0147 47.2196 30.7987 46.4636 30.6187V26.1547H49.4876C50.8556 26.1547 51.3596 25.9747 51.8996 24.8227L52.2236 24.1387L44.6276 6.78674H50.6396L53.5916 14.3467L54.8876 17.8387H55.2836L56.3996 14.3467L58.9556 6.78674H64.9676L56.9036 26.1547C55.3556 29.8627 53.3396 31.0147 49.7756 31.0147ZM72.8671 30.9427H67.4671V6.78674H72.4711V9.45074H72.6511C73.6231 7.50674 75.7111 6.42674 78.4111 6.42674C83.5231 6.42674 86.1871 10.1347 86.1871 15.8587C86.1871 21.5467 83.4151 25.2547 78.5191 25.2547C75.6391 25.2547 73.8751 24.0667 73.0471 22.5187H72.8671V30.9427ZM72.8671 17.2987C72.8671 19.7467 74.2711 20.6467 76.8271 20.6467C79.9591 20.6467 80.7871 19.1347 80.7871 15.8587C80.7871 12.5467 79.9591 11.0347 76.8271 11.0347C74.2711 11.0347 72.8671 11.9347 72.8671 14.3827V17.2987ZM98.5714 24.9667C93.8554 24.9667 91.5874 23.2387 91.5874 18.9547V11.2507H88.7074V6.78674H91.7314L92.7394 2.57474H96.9874V6.78674H102.099V11.2507H96.9874V18.3427C96.9874 19.9267 97.5274 20.1067 99.8674 20.1067H102.099V24.6067C101.235 24.7867 99.8314 24.9667 98.5714 24.9667ZM114.186 25.2547C108.354 25.2547 104.898 21.5827 104.898 15.8587C104.898 10.0987 108.354 6.42674 114.186 6.42674C119.982 6.42674 123.366 10.0987 123.366 15.8587C123.366 21.5827 119.982 25.2547 114.186 25.2547ZM114.186 20.5027C117.102 20.5027 118.11 19.3507 118.11 15.8587C118.11 12.3307 117.102 11.1787 114.186 11.1787C111.234 11.1787 110.226 12.3307 110.226 15.8587C110.226 19.3507 111.234 20.5027 114.186 20.5027Z" fill="url(#paint0_linear_104_3868)"/>
<path d="M138.534 25.2547C131.298 25.2547 126.978 20.3587 126.978 12.8347C126.978 5.31074 131.298 0.414745 138.534 0.414745C145.662 0.414745 149.514 4.15874 149.514 10.1347V10.4587H143.754V10.2787C143.754 6.82274 142.314 5.63474 138.498 5.63474C134.43 5.63474 132.738 7.11074 132.738 12.8347C132.738 18.5587 134.43 20.0347 138.498 20.0347C142.314 20.0347 143.754 18.8467 143.754 15.3907V15.2107H149.514V15.5347C149.514 21.5107 145.662 25.2547 138.534 25.2547ZM162.418 25.2547C156.586 25.2547 153.13 21.5827 153.13 15.8587C153.13 10.0987 156.586 6.42674 162.418 6.42674C168.214 6.42674 171.598 10.0987 171.598 15.8587C171.598 21.5827 168.214 25.2547 162.418 25.2547ZM162.418 20.5027C165.334 20.5027 166.342 19.3507 166.342 15.8587C166.342 12.3307 165.334 11.1787 162.418 11.1787C159.466 11.1787 158.458 12.3307 158.458 15.8587C158.458 19.3507 159.466 20.5027 162.418 20.5027ZM180.902 24.8947H175.538V0.774744H180.902V24.8947ZM191.131 24.8947H185.767V0.774744H191.131V24.8947ZM204.139 25.2547C197.911 25.2547 195.067 21.6187 195.067 15.8947C195.067 10.0987 198.523 6.42674 204.175 6.42674C209.611 6.42674 212.815 9.66674 212.815 14.3827C212.815 15.3907 212.671 16.4347 212.563 17.0467H200.143C200.251 19.5667 201.259 20.5747 204.211 20.5747C206.371 20.5747 207.307 20.1067 207.307 18.9907V18.7747H212.635V19.1347C212.635 22.9867 209.323 25.2547 204.139 25.2547ZM203.995 10.8547C201.403 10.8547 200.395 11.8627 200.179 13.7707H207.631C207.739 11.8987 206.515 10.8547 203.995 10.8547ZM225.585 25.2547C219.609 25.2547 216.405 21.6187 216.405 15.8947C216.405 10.0987 219.825 6.42674 225.873 6.42674C230.697 6.42674 234.225 9.37874 234.225 13.8427V14.2747H228.825V13.9867C228.825 11.9347 227.673 11.2507 225.441 11.2507C222.849 11.2507 221.733 12.4747 221.733 15.8587C221.733 19.2067 222.849 20.4307 225.441 20.4307C227.673 20.4307 228.825 19.7467 228.825 17.6947V17.4067H234.225V17.8387C234.225 22.3027 230.589 25.2547 225.585 25.2547ZM246.322 24.9667C241.606 24.9667 239.338 23.2387 239.338 18.9547V11.2507H236.458V6.78674H239.482L240.49 2.57474H244.738V6.78674H249.85V11.2507H244.738V18.3427C244.738 19.9267 245.278 20.1067 247.618 20.1067H249.85V24.6067C248.986 24.7867 247.582 24.9667 246.322 24.9667Z" fill="#F2F2FA"/>
<defs>
<linearGradient id="paint0_linear_104_3868" x1="117.588" y1="-7.10525" x2="111.972" y2="46.2855" gradientUnits="userSpaceOnUse">
<stop stop-color="#6262D9"/>
<stop offset="1" stop-color="#9D62D9"/>
<stop offset="1" stop-color="#9D62D9"/>
</linearGradient>
</defs>
</svg>
