<svg width="16" height="17" viewBox="0 0 16 17" fill="none" xmlns="http://www.w3.org/2000/svg">
<g id="Icon-pack">
<path id="Vector" d="M13.9909 2.90316C13.7771 2.68937 13.5233 2.51978 13.244 2.40408C12.9647 2.28837 12.6653 2.22882 12.3629 2.22882C12.0606 2.22882 11.7612 2.28837 11.4818 2.40408C11.2025 2.51978 10.9487 2.68937 10.7349 2.90316L2.67892 10.9605C2.42497 11.2144 2.24398 11.5319 2.15492 11.8798L1.34592 15.0415C1.32807 15.1115 1.32874 15.185 1.34787 15.2547C1.36701 15.3244 1.40394 15.3879 1.45505 15.439C1.50615 15.4901 1.56968 15.5271 1.63937 15.5462C1.70907 15.5653 1.78255 15.566 1.85258 15.5482L5.01492 14.7402C5.36305 14.6512 5.68083 14.4702 5.93492 14.2162L13.9909 6.15883C14.4226 5.72707 14.6651 5.14153 14.6651 4.531C14.6651 3.92046 14.4226 3.33492 13.9909 2.90316ZM11.3242 3.4925C11.5997 3.21698 11.9734 3.06218 12.363 3.06215C12.7526 3.06212 13.1262 3.21686 13.4018 3.49233C13.6773 3.7678 13.8321 4.14144 13.8321 4.53105C13.8321 4.92065 13.6774 5.29431 13.4019 5.56983L12.6663 6.3055L10.5889 4.22783L11.3242 3.4925ZM9.99958 4.81716L12.0769 6.89483L5.34558 13.6268C5.19728 13.7752 5.01179 13.8809 4.80858 13.9328L2.32758 14.5668L2.96225 12.0865C3.01425 11.8832 3.11992 11.6978 3.26792 11.5498L9.99958 4.81683V4.81716Z" fill="#E0E0E0"/>
</g>
</svg>
